<?xml version="1.0" ?><svg viewBox="0 0 22.175 22.176" xmlns="http://www.w3.org/2000/svg"><g data-name="Layer 2" id="Layer_2"><g data-name="Layer 1" id="Layer_1-2"><path d="M21.84,19.264H20.159v-1.9a.336.336,0,0,0-.336-.337H2.352a.336.336,0,0,0-.336.337v1.9H.336A.336.336,0,0,0,0,19.6v2.24a.336.336,0,0,0,.336.336h21.5a.336.336,0,0,0,.335-.336V19.6A.336.336,0,0,0,21.84,19.264ZM2.688,17.7h16.8v1.567H2.688ZM21.5,21.5H.672V19.936H21.5ZM.336,6.048h1.68v1.9a.335.335,0,0,0,.336.336H19.823a.335.335,0,0,0,.336-.336v-1.9H21.84a.338.338,0,0,0,.15-.636L11.238.035a.337.337,0,0,0-.3,0L.186,5.412A.337.337,0,0,0,.336,6.048ZM19.488,7.617H2.688V6.048h16.8ZM11.088.711l9.328,4.665H1.759ZM4.927,9.072V16.24a.336.336,0,0,1-.672,0V9.072A.336.336,0,0,1,4.927,9.072Zm2.24,0V16.24a.336.336,0,0,1-.672,0V9.072A.336.336,0,0,1,7.167,9.072Zm3.137,0V16.24a.337.337,0,0,1-.673,0V9.072A.337.337,0,0,1,10.3,9.072Zm2.24,0V16.24a.337.337,0,0,1-.673,0V9.072A.337.337,0,0,1,12.544,9.072Zm3.136,0V16.24a.336.336,0,0,1-.672,0V9.072A.336.336,0,0,1,15.68,9.072Zm2.24,0V16.24a.336.336,0,0,1-.671,0V9.072A.336.336,0,0,1,17.92,9.072ZM11.088,4.7a1.456,1.456,0,0,0,0-2.912A1.456,1.456,0,0,0,11.088,4.7Zm0-2.24a.784.784,0,0,1,0,1.568A.784.784,0,0,1,11.088,2.464Z" id="history"/></g></g></svg>