<svg <?xml version="1.0" ?><svg viewBox="0 0 64 64" xmlns="http://www.w3.org/2000/svg"><g data-name="19-game" id="_19-game"><path d="M64,37.9C63.678,34.837,60.6,8,50,8a18.916,18.916,0,0,0-10.612,2.836A13.159,13.159,0,0,1,32,13a13.159,13.159,0,0,1-7.388-2.164A18.916,18.916,0,0,0,14,8C3.4,8,.322,34.837.005,37.9c0,.035,0,.069,0,.1V48.291A7.717,7.717,0,0,0,7.709,56h.123a7.82,7.82,0,0,0,6.289-3.251C15.719,50.6,20.167,47,32,47s16.281,3.6,17.879,5.75A7.822,7.822,0,0,0,56.168,56h.123A7.717,7.717,0,0,0,64,48.291V38C64,37.966,64,37.932,64,37.9ZM62,48.291A5.716,5.716,0,0,1,56.291,54h-.123a5.843,5.843,0,0,1-4.684-2.444C49.257,48.564,44.07,45,32,45s-17.257,3.564-19.484,6.555A5.842,5.842,0,0,1,7.832,54H7.709A5.716,5.716,0,0,1,2,48.291V38.052C2.821,30.2,6.557,10,14,10a16.98,16.98,0,0,1,9.636,2.582A15.174,15.174,0,0,0,32,15a15.174,15.174,0,0,0,8.364-2.418A16.98,16.98,0,0,1,50,10c7.443,0,11.179,20.2,12,28.052Z"/><path d="M26,25H21V20a1,1,0,0,0-1-1H14a1,1,0,0,0-1,1v5H8a1,1,0,0,0-1,1v6a1,1,0,0,0,1,1h5v5a1,1,0,0,0,1,1h6a1,1,0,0,0,1-1V36a1,1,0,0,0-2,0v1H15V32a1,1,0,0,0-1-1H9V27h5a1,1,0,0,0,1-1V21h4v5a1,1,0,0,0,1,1h5v4H20a1,1,0,0,0,0,2h6a1,1,0,0,0,1-1V26A1,1,0,0,0,26,25Z"/><path d="M46,26a4,4,0,1,0-4-4A4,4,0,0,0,46,26Zm0-6a2,2,0,1,1-2,2A2,2,0,0,1,46,20Z"/><path d="M46,32a4,4,0,1,0,4,4A4,4,0,0,0,46,32Zm0,6a2,2,0,1,1,2-2A2,2,0,0,1,46,38Z"/><path d="M49,29a4,4,0,1,0,4-4A4,4,0,0,0,49,29Zm6,0a2,2,0,1,1-2-2A2,2,0,0,1,55,29Z"/><path d="M39,25a4,4,0,1,0,4,4A4,4,0,0,0,39,25Zm0,6a2,2,0,1,1,2-2A2,2,0,0,1,39,31Z"/></g></svg>

