<?xml version="1.0" ?><svg data-name="Layer 1" id="Layer_1" viewBox="0 0 512 512" xmlns="http://www.w3.org/2000/svg"><title/><path d="M466.73,80.57H45.27a5.62,5.62,0,0,0-5.62,5.62V425.81a5.62,5.62,0,0,0,5.62,5.62H466.73a5.62,5.62,0,0,0,5.62-5.62V86.19A5.62,5.62,0,0,0,466.73,80.57ZM461.11,420.2H50.89V91.8H461.11Z"/><path d="M160.71,232.48a5.64,5.64,0,0,0-6.12,1.22L136,252.25a5.62,5.62,0,1,0,7.95,7.94l9-9v95.32a5.62,5.62,0,0,0,11.23,0V237.67A5.63,5.63,0,0,0,160.71,232.48Z"/><path d="M353.45,232.06c-26.5,0-48.05,26.93-48.05,60.05s21.55,60.05,48.05,60.05,48.06-26.93,48.06-60.05S380,232.06,353.45,232.06Zm0,108.87c-20.3,0-36.82-21.9-36.82-48.82s16.52-48.82,36.82-48.82,36.82,21.9,36.82,48.82S373.76,340.93,353.45,340.93Z"/><path d="M103.22,188H213.89a5.62,5.62,0,0,0,5.61-5.62V127.11a5.62,5.62,0,0,0-5.61-5.62H103.22a5.62,5.62,0,0,0-5.62,5.62v55.23A5.62,5.62,0,0,0,103.22,188Zm5.61-55.24h99.44v44H108.83Z"/><path d="M298.11,188H408.79a5.62,5.62,0,0,0,5.61-5.62V127.11a5.62,5.62,0,0,0-5.61-5.62H298.11a5.62,5.62,0,0,0-5.61,5.62v55.23A5.62,5.62,0,0,0,298.11,188Zm5.62-55.24h99.44v44H303.73Z"/><path d="M256,256.79a5.62,5.62,0,0,0,5.62-5.62v-13.5a5.62,5.62,0,0,0-11.23,0v13.5A5.62,5.62,0,0,0,256,256.79Z"/><path d="M256,352.16a5.62,5.62,0,0,0,5.62-5.61v-13.5a5.62,5.62,0,1,0-11.23,0v13.5A5.61,5.61,0,0,0,256,352.16Z"/></svg>